<?xml version="1.0" encoding="utf-8" ?>
<!DOCTYPE svg PUBLIC '-//W3C//DTD SVG 20001102//EN' 'http://www.w3.org/TR/2000/CR-SVG-20001102/DTD/svg-20001102.dtd'>
<svg height="1100" width="1456" xmlns="http://www.w3.org/2000/svg">
<rect height="21" style="fill:#ffffff; stroke:#ffffff; stroke-width:1" width="1367" x="14" y="110"/>
<rect height="20" style="fill: none; stroke:#000000; stroke-width:1" width="1366" x="14" y="110"/>
<text style="font-family:Dialog; font-size:10;" x="18" y="124">
content</text>
<rect height="956" style="fill:#ffffff; stroke:#ffffff; stroke-width:1" width="1416" x="14" y="130"/>
<rect height="955" style="fill: none; stroke:#000000; stroke-width:1" width="1415" x="14" y="130"/>
<rect height="93" style="fill:#ffffff; stroke:#ffffff; stroke-width:1" width="123" x="1086" y="622"/>
<rect height="16" style="fill:#ffffff; stroke:#ffffff; stroke-width:1" width="123" x="1086" y="622"/>
<rect height="16" style="fill: none; stroke:#000000; stroke-width:1" width="123" x="1086" y="622"/>
<rect height="14" style="fill:#ffffff; stroke:#ffffff; stroke-width:1" width="121" x="1087" y="623"/>
<text style="font-family:Dialog; font-size:10;" x="1112" y="637">
&lt;&lt;archetype&gt;&gt;</text>
<rect height="21" style="fill:#ffffff; stroke:#ffffff; stroke-width:1" width="123" x="1086" y="638"/>
<text style="font-family:Dialog; font-size:10;" x="1098" y="652">
HelpCenterDefinition</text>
<rect height="27" style="fill:#ffffff; stroke:#ffffff; stroke-width:1" width="122" x="1087" y="687"/>
<line style="fill:#000000; stroke:#000000; stroke-width:1" x1="1087" x2="1209" y1="687" y2="687"/>
<rect height="26" style="fill:#ffffff; stroke:#ffffff; stroke-width:1" width="122" x="1087" y="660"/>
<line style="fill:#000000; stroke:#000000; stroke-width:1" x1="1087" x2="1209" y1="660" y2="660"/>
<text style="font-family:Dialog; font-size:10;" x="1090" y="675">
description : text</text>
<rect height="93" style="fill: none; stroke:#000000; stroke-width:1" width="123" x="1086" y="622"/>
<rect height="109" style="fill:#ffffff; stroke:#ffffff; stroke-width:1" width="155" x="902" y="606"/>
<rect height="16" style="fill:#ffffff; stroke:#ffffff; stroke-width:1" width="155" x="902" y="606"/>
<rect height="16" style="fill: none; stroke:#000000; stroke-width:1" width="155" x="902" y="606"/>
<rect height="14" style="fill:#ffffff; stroke:#ffffff; stroke-width:1" width="153" x="903" y="607"/>
<text style="font-family:Dialog; font-size:10;" x="949" y="621">
&lt;&lt;ordered&gt;&gt;</text>
<rect height="21" style="fill:#ffffff; stroke:#ffffff; stroke-width:1" width="155" x="902" y="622"/>
<text style="font-family:Dialog; font-size:10;" x="917" y="636">
HelpCenterErrorReference</text>
<rect height="29" style="fill:#ffffff; stroke:#ffffff; stroke-width:1" width="154" x="903" y="685"/>
<line style="fill:#000000; stroke:#000000; stroke-width:1" x1="903" x2="1057" y1="685" y2="685"/>
<text style="font-family:Dialog; font-size:10;" x="906" y="700">
action:attachments() : void</text>
<rect height="40" style="fill:#ffffff; stroke:#ffffff; stroke-width:1" width="154" x="903" y="644"/>
<line style="fill:#000000; stroke:#000000; stroke-width:1" x1="903" x2="1057" y1="644" y2="644"/>
<text style="font-family:Dialog; font-size:10;" x="906" y="659">
description : text</text>
<text style="font-family:Dialog; font-size:10;" x="906" y="673">
body : richtext</text>
<rect height="109" style="fill: none; stroke:#000000; stroke-width:1" width="155" x="902" y="606"/>
<rect height="93" style="fill:#ffffff; stroke:#ffffff; stroke-width:1" width="190" x="894" y="446"/>
<rect height="16" style="fill:#ffffff; stroke:#ffffff; stroke-width:1" width="190" x="894" y="446"/>
<rect height="16" style="fill: none; stroke:#000000; stroke-width:1" width="190" x="894" y="446"/>
<rect height="14" style="fill:#ffffff; stroke:#ffffff; stroke-width:1" width="188" x="895" y="447"/>
<text style="font-family:Dialog; font-size:10;" x="963" y="461">
&lt;&lt;folder&gt;&gt;</text>
<rect height="21" style="fill:#ffffff; stroke:#ffffff; stroke-width:1" width="190" x="894" y="462"/>
<text style="font-family:Dialog; font-size:10;" x="912" y="476">
HelpCenterErrorReferenceFolder</text>
<rect height="27" style="fill:#ffffff; stroke:#ffffff; stroke-width:1" width="189" x="895" y="511"/>
<line style="fill:#000000; stroke:#000000; stroke-width:1" x1="895" x2="1084" y1="511" y2="511"/>
<rect height="26" style="fill:#ffffff; stroke:#ffffff; stroke-width:1" width="189" x="895" y="484"/>
<line style="fill:#000000; stroke:#000000; stroke-width:1" x1="895" x2="1084" y1="484" y2="484"/>
<text style="font-family:Dialog; font-size:10;" x="898" y="499">
description : text</text>
<rect height="93" style="fill: none; stroke:#000000; stroke-width:1" width="190" x="894" y="446"/>
<polyline points="950,539 950,606" style="fill:none; stroke:#000000; stroke-width:1"/>
<polygon points="950,539 955,549 950,559 945,549" style="fill:#000000; stroke:#000000; stroke-width:1"/>
<polygon points="950,539 955,549 950,559 945,549" style="fill:none; stroke:#000000; stroke-width:1"/>
<text style="font-family:Dialog; font-size:10;" x="962" y="560">
1</text>
<text style="font-family:Dialog; font-size:10;" x="957" y="597">
0..*</text>
<polyline points="470,374 470,390 966,390 966,446" style="fill:none; stroke:#000000; stroke-width:1"/>
<polygon points="470,374 475,384 470,394 465,384" style="fill:#000000; stroke:#000000; stroke-width:1"/>
<polygon points="470,374 475,384 470,394 465,384" style="fill:none; stroke:#000000; stroke-width:1"/>
<text style="font-family:Dialog; font-size:10;" x="479" y="387">
1</text>
<text style="font-family:Dialog; font-size:10;" x="973" y="437">
1..*</text>
<rect height="93" style="fill:#ffffff; stroke:#ffffff; stroke-width:1" width="129" x="30" y="446"/>
<rect height="16" style="fill:#ffffff; stroke:#ffffff; stroke-width:1" width="129" x="30" y="446"/>
<rect height="16" style="fill: none; stroke:#000000; stroke-width:1" width="129" x="30" y="446"/>
<rect height="14" style="fill:#ffffff; stroke:#ffffff; stroke-width:1" width="127" x="31" y="447"/>
<text style="font-family:Dialog; font-size:10;" x="64" y="461">
&lt;&lt;ordered&gt;&gt;</text>
<rect height="21" style="fill:#ffffff; stroke:#ffffff; stroke-width:1" width="129" x="30" y="462"/>
<text style="font-family:Dialog; font-size:10;" x="42" y="476">
HelpCenterFAQFolder</text>
<rect height="27" style="fill:#ffffff; stroke:#ffffff; stroke-width:1" width="128" x="31" y="511"/>
<line style="fill:#000000; stroke:#000000; stroke-width:1" x1="31" x2="159" y1="511" y2="511"/>
<rect height="26" style="fill:#ffffff; stroke:#ffffff; stroke-width:1" width="128" x="31" y="484"/>
<line style="fill:#000000; stroke:#000000; stroke-width:1" x1="31" x2="159" y1="484" y2="484"/>
<text style="font-family:Dialog; font-size:10;" x="34" y="499">
description : text</text>
<rect height="93" style="fill: none; stroke:#000000; stroke-width:1" width="129" x="30" y="446"/>
<polyline points="342,374 342,382 102,382 102,446" style="fill:none; stroke:#000000; stroke-width:1"/>
<polygon points="342,374 347,384 342,394 337,384" style="fill:#000000; stroke:#000000; stroke-width:1"/>
<polygon points="342,374 347,384 342,394 337,384" style="fill:none; stroke:#000000; stroke-width:1"/>
<text style="font-family:Dialog; font-size:10;" x="332" y="403">
1</text>
<text style="font-family:Dialog; font-size:10;" x="109" y="437">
1..*</text>
<rect height="107" style="fill:#ffffff; stroke:#ffffff; stroke-width:1" width="95" x="38" y="630"/>
<rect height="16" style="fill:#ffffff; stroke:#ffffff; stroke-width:1" width="95" x="38" y="630"/>
<rect height="16" style="fill: none; stroke:#000000; stroke-width:1" width="95" x="38" y="630"/>
<rect height="14" style="fill:#ffffff; stroke:#ffffff; stroke-width:1" width="93" x="39" y="631"/>
<text style="font-family:Dialog; font-size:10;" x="50" y="645">
&lt;&lt;archetype&gt;&gt;</text>
<rect height="21" style="fill:#ffffff; stroke:#ffffff; stroke-width:1" width="95" x="38" y="646"/>
<text style="font-family:Dialog; font-size:10;" x="48" y="660">
HelpCenterFAQ</text>
<rect height="27" style="fill:#ffffff; stroke:#ffffff; stroke-width:1" width="94" x="39" y="709"/>
<line style="fill:#000000; stroke:#000000; stroke-width:1" x1="39" x2="133" y1="709" y2="709"/>
<rect height="40" style="fill:#ffffff; stroke:#ffffff; stroke-width:1" width="94" x="39" y="668"/>
<line style="fill:#000000; stroke:#000000; stroke-width:1" x1="39" x2="133" y1="668" y2="668"/>
<text style="font-family:Dialog; font-size:10;" x="42" y="683">
description : text</text>
<text style="font-family:Dialog; font-size:10;" x="42" y="697">
answer : richtext</text>
<rect height="107" style="fill: none; stroke:#000000; stroke-width:1" width="95" x="38" y="630"/>
<polyline points="94,539 94,630" style="fill:none; stroke:#000000; stroke-width:1"/>
<polygon points="94,539 99,549 94,559 89,549" style="fill:#000000; stroke:#000000; stroke-width:1"/>
<polygon points="94,539 99,549 94,559 89,549" style="fill:none; stroke:#000000; stroke-width:1"/>
<text style="font-family:Dialog; font-size:10;" x="106" y="560">
1</text>
<text style="font-family:Dialog; font-size:10;" x="101" y="621">
0..*</text>
<rect height="93" style="fill:#ffffff; stroke:#ffffff; stroke-width:1" width="120" x="1110" y="462"/>
<rect height="16" style="fill:#ffffff; stroke:#ffffff; stroke-width:1" width="120" x="1110" y="462"/>
<rect height="16" style="fill: none; stroke:#000000; stroke-width:1" width="120" x="1110" y="462"/>
<rect height="14" style="fill:#ffffff; stroke:#ffffff; stroke-width:1" width="118" x="1111" y="463"/>
<text style="font-family:Dialog; font-size:10;" x="1140" y="477">
&lt;&lt;ordered&gt;&gt;</text>
<rect height="21" style="fill:#ffffff; stroke:#ffffff; stroke-width:1" width="120" x="1110" y="478"/>
<text style="font-family:Dialog; font-size:10;" x="1124" y="492">
HelpCenterGlossary</text>
<rect height="27" style="fill:#ffffff; stroke:#ffffff; stroke-width:1" width="119" x="1111" y="527"/>
<line style="fill:#000000; stroke:#000000; stroke-width:1" x1="1111" x2="1230" y1="527" y2="527"/>
<rect height="26" style="fill:#ffffff; stroke:#ffffff; stroke-width:1" width="119" x="1111" y="500"/>
<line style="fill:#000000; stroke:#000000; stroke-width:1" x1="1111" x2="1230" y1="500" y2="500"/>
<text style="font-family:Dialog; font-size:10;" x="1114" y="515">
description : text</text>
<rect height="93" style="fill: none; stroke:#000000; stroke-width:1" width="120" x="1110" y="462"/>
<polyline points="497,326 1174,326 1174,462" style="fill:none; stroke:#000000; stroke-width:1"/>
<polygon points="497,326 507,321 517,326 507,331" style="fill:#000000; stroke:#000000; stroke-width:1"/>
<polygon points="497,326 507,321 517,326 507,331" style="fill:none; stroke:#000000; stroke-width:1"/>
<text style="font-family:Dialog; font-size:10;" x="509" y="317">
1</text>
<text style="font-family:Dialog; font-size:10;" x="1181" y="453">
1..*</text>
<polyline points="1150,555 1150,622" style="fill:none; stroke:#000000; stroke-width:1"/>
<polygon points="1150,555 1155,565 1150,575 1145,565" style="fill:#000000; stroke:#000000; stroke-width:1"/>
<polygon points="1150,555 1155,565 1150,575 1145,565" style="fill:none; stroke:#000000; stroke-width:1"/>
<text style="font-family:Dialog; font-size:10;" x="1162" y="576">
1</text>
<text style="font-family:Dialog; font-size:10;" x="1157" y="613">
0..*</text>
<rect height="93" style="fill:#ffffff; stroke:#ffffff; stroke-width:1" width="145" x="166" y="446"/>
<rect height="16" style="fill:#ffffff; stroke:#ffffff; stroke-width:1" width="145" x="166" y="446"/>
<rect height="16" style="fill: none; stroke:#000000; stroke-width:1" width="145" x="166" y="446"/>
<rect height="14" style="fill:#ffffff; stroke:#ffffff; stroke-width:1" width="143" x="167" y="447"/>
<text style="font-family:Dialog; font-size:10;" x="208" y="461">
&lt;&lt;ordered&gt;&gt;</text>
<rect height="21" style="fill:#ffffff; stroke:#ffffff; stroke-width:1" width="145" x="166" y="462"/>
<text style="font-family:Dialog; font-size:10;" x="180" y="476">
HelpCenterHowToFolder</text>
<rect height="27" style="fill:#ffffff; stroke:#ffffff; stroke-width:1" width="144" x="167" y="511"/>
<line style="fill:#000000; stroke:#000000; stroke-width:1" x1="167" x2="311" y1="511" y2="511"/>
<rect height="26" style="fill:#ffffff; stroke:#ffffff; stroke-width:1" width="144" x="167" y="484"/>
<line style="fill:#000000; stroke:#000000; stroke-width:1" x1="167" x2="311" y1="484" y2="484"/>
<text style="font-family:Dialog; font-size:10;" x="170" y="499">
description : text</text>
<rect height="93" style="fill: none; stroke:#000000; stroke-width:1" width="145" x="166" y="446"/>
<polyline points="366,374 366,406 222,406 222,446" style="fill:none; stroke:#000000; stroke-width:1"/>
<polygon points="366,374 371,384 366,394 361,384" style="fill:#000000; stroke:#000000; stroke-width:1"/>
<polygon points="366,374 371,384 366,394 361,384" style="fill:none; stroke:#000000; stroke-width:1"/>
<text style="font-family:Dialog; font-size:10;" x="378" y="395">
1</text>
<text style="font-family:Dialog; font-size:10;" x="229" y="437">
1..*</text>
<rect height="93" style="fill:#ffffff; stroke:#ffffff; stroke-width:1" width="147" x="342" y="446"/>
<rect height="16" style="fill:#ffffff; stroke:#ffffff; stroke-width:1" width="147" x="342" y="446"/>
<rect height="16" style="fill: none; stroke:#000000; stroke-width:1" width="147" x="342" y="446"/>
<rect height="14" style="fill:#ffffff; stroke:#ffffff; stroke-width:1" width="145" x="343" y="447"/>
<text style="font-family:Dialog; font-size:10;" x="385" y="461">
&lt;&lt;ordered&gt;&gt;</text>
<rect height="21" style="fill:#ffffff; stroke:#ffffff; stroke-width:1" width="147" x="342" y="462"/>
<text style="font-family:Dialog; font-size:10;" x="355" y="476">
HelpCenterTutorialFolder</text>
<rect height="27" style="fill:#ffffff; stroke:#ffffff; stroke-width:1" width="146" x="343" y="511"/>
<line style="fill:#000000; stroke:#000000; stroke-width:1" x1="343" x2="489" y1="511" y2="511"/>
<rect height="26" style="fill:#ffffff; stroke:#ffffff; stroke-width:1" width="146" x="343" y="484"/>
<line style="fill:#000000; stroke:#000000; stroke-width:1" x1="343" x2="489" y1="484" y2="484"/>
<text style="font-family:Dialog; font-size:10;" x="346" y="499">
description : text</text>
<rect height="93" style="fill: none; stroke:#000000; stroke-width:1" width="147" x="342" y="446"/>
<polyline points="390,374 390,446" style="fill:none; stroke:#000000; stroke-width:1"/>
<polygon points="390,374 395,384 390,394 385,384" style="fill:#000000; stroke:#000000; stroke-width:1"/>
<polygon points="390,374 395,384 390,394 385,384" style="fill:none; stroke:#000000; stroke-width:1"/>
<text style="font-family:Dialog; font-size:10;" x="402" y="395">
1</text>
<text style="font-family:Dialog; font-size:10;" x="397" y="437">
1..*</text>
<rect height="93" style="fill:#ffffff; stroke:#ffffff; stroke-width:1" width="129" x="734" y="454"/>
<rect height="16" style="fill:#ffffff; stroke:#ffffff; stroke-width:1" width="129" x="734" y="454"/>
<rect height="16" style="fill: none; stroke:#000000; stroke-width:1" width="129" x="734" y="454"/>
<rect height="14" style="fill:#ffffff; stroke:#ffffff; stroke-width:1" width="127" x="735" y="455"/>
<text style="font-family:Dialog; font-size:10;" x="768" y="469">
&lt;&lt;ordered&gt;&gt;</text>
<rect height="21" style="fill:#ffffff; stroke:#ffffff; stroke-width:1" width="129" x="734" y="470"/>
<text style="font-family:Dialog; font-size:10;" x="747" y="484">
HelpCenterLinkFolder</text>
<rect height="27" style="fill:#ffffff; stroke:#ffffff; stroke-width:1" width="128" x="735" y="519"/>
<line style="fill:#000000; stroke:#000000; stroke-width:1" x1="735" x2="863" y1="519" y2="519"/>
<rect height="26" style="fill:#ffffff; stroke:#ffffff; stroke-width:1" width="128" x="735" y="492"/>
<line style="fill:#000000; stroke:#000000; stroke-width:1" x1="735" x2="863" y1="492" y2="492"/>
<text style="font-family:Dialog; font-size:10;" x="738" y="507">
description : text</text>
<rect height="93" style="fill: none; stroke:#000000; stroke-width:1" width="129" x="734" y="454"/>
<polyline points="446,374 446,406 758,406 758,454" style="fill:none; stroke:#000000; stroke-width:1"/>
<polygon points="446,374 451,384 446,394 441,384" style="fill:#000000; stroke:#000000; stroke-width:1"/>
<polygon points="446,374 451,384 446,394 441,384" style="fill:none; stroke:#000000; stroke-width:1"/>
<text style="font-family:Dialog; font-size:10;" x="458" y="395">
1</text>
<text style="font-family:Dialog; font-size:10;" x="765" y="445">
0..*</text>
<rect height="93" style="fill:#ffffff; stroke:#ffffff; stroke-width:1" width="204" x="1238" y="470"/>
<rect height="16" style="fill:#ffffff; stroke:#ffffff; stroke-width:1" width="204" x="1238" y="470"/>
<rect height="16" style="fill: none; stroke:#000000; stroke-width:1" width="204" x="1238" y="470"/>
<rect height="14" style="fill:#ffffff; stroke:#ffffff; stroke-width:1" width="202" x="1239" y="471"/>
<text style="font-family:Dialog; font-size:10;" x="1310" y="485">
&lt;&lt;ordered&gt;&gt;</text>
<rect height="21" style="fill:#ffffff; stroke:#ffffff; stroke-width:1" width="204" x="1238" y="486"/>
<text style="font-family:Dialog; font-size:10;" x="1255" y="500">
HelpCenterInstructionalVideoFolder</text>
<rect height="27" style="fill:#ffffff; stroke:#ffffff; stroke-width:1" width="203" x="1239" y="535"/>
<line style="fill:#000000; stroke:#000000; stroke-width:1" x1="1239" x2="1442" y1="535" y2="535"/>
<rect height="26" style="fill:#ffffff; stroke:#ffffff; stroke-width:1" width="203" x="1239" y="508"/>
<line style="fill:#000000; stroke:#000000; stroke-width:1" x1="1239" x2="1442" y1="508" y2="508"/>
<text style="font-family:Dialog; font-size:10;" x="1242" y="523">
description : text</text>
<rect height="93" style="fill: none; stroke:#000000; stroke-width:1" width="204" x="1238" y="470"/>
<polyline points="497,302 1342,302 1342,470" style="fill:none; stroke:#000000; stroke-width:1"/>
<polygon points="497,302 507,297 517,302 507,307" style="fill:#000000; stroke:#000000; stroke-width:1"/>
<polygon points="497,302 507,297 517,302 507,307" style="fill:none; stroke:#000000; stroke-width:1"/>
<text style="font-family:Dialog; font-size:10;" x="509" y="293">
1</text>
<text style="font-family:Dialog; font-size:10;" x="1349" y="461">
1..*</text>
<rect height="93" style="fill:#ffffff; stroke:#ffffff; stroke-width:1" width="203" x="510" y="446"/>
<rect height="16" style="fill:#ffffff; stroke:#ffffff; stroke-width:1" width="203" x="510" y="446"/>
<rect height="16" style="fill: none; stroke:#000000; stroke-width:1" width="203" x="510" y="446"/>
<rect height="14" style="fill:#ffffff; stroke:#ffffff; stroke-width:1" width="201" x="511" y="447"/>
<text style="font-family:Dialog; font-size:10;" x="581" y="461">
&lt;&lt;ordered&gt;&gt;</text>
<rect height="21" style="fill:#ffffff; stroke:#ffffff; stroke-width:1" width="203" x="510" y="462"/>
<text style="font-family:Dialog; font-size:10;" x="527" y="476">
HelpCenterReferenceManualFolder</text>
<rect height="27" style="fill:#ffffff; stroke:#ffffff; stroke-width:1" width="202" x="511" y="511"/>
<line style="fill:#000000; stroke:#000000; stroke-width:1" x1="511" x2="713" y1="511" y2="511"/>
<rect height="26" style="fill:#ffffff; stroke:#ffffff; stroke-width:1" width="202" x="511" y="484"/>
<line style="fill:#000000; stroke:#000000; stroke-width:1" x1="511" x2="713" y1="484" y2="484"/>
<text style="font-family:Dialog; font-size:10;" x="514" y="499">
description : text</text>
<rect height="93" style="fill: none; stroke:#000000; stroke-width:1" width="203" x="510" y="446"/>
<polyline points="422,374 422,422 558,422 558,446" style="fill:none; stroke:#000000; stroke-width:1"/>
<polygon points="422,374 427,384 422,394 417,384" style="fill:#000000; stroke:#000000; stroke-width:1"/>
<polygon points="422,374 427,384 422,394 417,384" style="fill:none; stroke:#000000; stroke-width:1"/>
<text style="font-family:Dialog; font-size:10;" x="429" y="395">
1..*</text>
<text style="font-family:Dialog; font-size:10;" x="570" y="437">
1</text>
<rect height="125" style="fill:#ffffff; stroke:#ffffff; stroke-width:1" width="110" x="174" y="630"/>
<rect height="16" style="fill:#ffffff; stroke:#ffffff; stroke-width:1" width="110" x="174" y="630"/>
<rect height="16" style="fill: none; stroke:#000000; stroke-width:1" width="110" x="174" y="630"/>
<rect height="14" style="fill:#ffffff; stroke:#ffffff; stroke-width:1" width="108" x="175" y="631"/>
<text style="font-family:Dialog; font-size:10;" x="203" y="645">
&lt;&lt;folder&gt;&gt;</text>
<rect height="21" style="fill:#ffffff; stroke:#ffffff; stroke-width:1" width="110" x="174" y="646"/>
<text style="font-family:Dialog; font-size:10;" x="186" y="660">
HelpCenterHowTo</text>
<rect height="44" style="fill:#ffffff; stroke:#ffffff; stroke-width:1" width="109" x="175" y="710"/>
<line style="fill:#000000; stroke:#000000; stroke-width:1" x1="175" x2="284" y1="710" y2="710"/>
<text style="font-family:Dialog; font-size:10;" x="178" y="725">
getText() : void</text>
<text style="font-family:Dialog; font-size:10;" x="178" y="739">
setFormat() : void</text>
<rect height="41" style="fill:#ffffff; stroke:#ffffff; stroke-width:1" width="109" x="175" y="668"/>
<line style="fill:#000000; stroke:#000000; stroke-width:1" x1="175" x2="284" y1="668" y2="668"/>
<text style="font-family:Dialog; font-size:10;" x="178" y="683">
description : text</text>
<text style="font-family:Dialog; font-size:10;" x="178" y="697">
body : richtext</text>
<rect height="125" style="fill: none; stroke:#000000; stroke-width:1" width="110" x="174" y="630"/>
<polyline points="238,539 238,630" style="fill:none; stroke:#000000; stroke-width:1"/>
<polygon points="238,539 243,549 238,559 233,549" style="fill:#000000; stroke:#000000; stroke-width:1"/>
<polygon points="238,539 243,549 238,559 233,549" style="fill:none; stroke:#000000; stroke-width:1"/>
<text style="font-family:Dialog; font-size:10;" x="250" y="560">
1</text>
<text style="font-family:Dialog; font-size:10;" x="245" y="621">
0..*</text>
<rect height="125" style="fill:#ffffff; stroke:#ffffff; stroke-width:1" width="167" x="326" y="590"/>
<rect height="16" style="fill:#ffffff; stroke:#ffffff; stroke-width:1" width="167" x="326" y="590"/>
<rect height="16" style="fill: none; stroke:#000000; stroke-width:1" width="167" x="326" y="590"/>
<rect height="14" style="fill:#ffffff; stroke:#ffffff; stroke-width:1" width="165" x="327" y="591"/>
<text style="font-family:Dialog; font-size:10;" x="379" y="605">
&lt;&lt;ordered&gt;&gt;</text>
<rect height="21" style="fill:#ffffff; stroke:#ffffff; stroke-width:1" width="167" x="326" y="606"/>
<text style="font-family:Dialog; font-size:10;" x="364" y="620">
HelpCenterTutorial</text>
<rect height="58" style="fill:#ffffff; stroke:#ffffff; stroke-width:1" width="166" x="327" y="656"/>
<line style="fill:#000000; stroke:#000000; stroke-width:1" x1="327" x2="493" y1="656" y2="656"/>
<text style="font-family:Dialog; font-size:10;" x="330" y="671">
getTutorialDescription() : void</text>
<text style="font-family:Dialog; font-size:10;" x="330" y="685">
getPages() : void</text>
<text style="font-family:Dialog; font-size:10;" x="330" y="699">
getPagePosition() : void</text>
<rect height="27" style="fill:#ffffff; stroke:#ffffff; stroke-width:1" width="166" x="327" y="628"/>
<line style="fill:#000000; stroke:#000000; stroke-width:1" x1="327" x2="493" y1="628" y2="628"/>
<text style="font-family:Dialog; font-size:10;" x="330" y="643">
description : text</text>
<rect height="125" style="fill: none; stroke:#000000; stroke-width:1" width="167" x="326" y="590"/>
<polyline points="406,539 406,590" style="fill:none; stroke:#000000; stroke-width:1"/>
<polygon points="406,539 411,549 406,559 401,549" style="fill:#000000; stroke:#000000; stroke-width:1"/>
<polygon points="406,539 411,549 406,559 401,549" style="fill:none; stroke:#000000; stroke-width:1"/>
<text style="font-family:Dialog; font-size:10;" x="418" y="560">
1</text>
<text style="font-family:Dialog; font-size:10;" x="413" y="581">
0..*</text>
<rect height="83" style="fill:#ffffff; stroke:#ffffff; stroke-width:1" width="141" x="334" y="766"/>
<rect height="0" style="fill:#ffffff; stroke:#ffffff; stroke-width:1" width="141" x="334" y="766"/>
<rect height="0" style="fill: none; stroke:#000000; stroke-width:1" width="141" x="334" y="766"/>
<rect height="21" style="fill:#ffffff; stroke:#ffffff; stroke-width:1" width="141" x="334" y="766"/>
<text style="font-family:Dialog; font-size:10;" x="347" y="780">
HelpCenterTutorialPage</text>
<rect height="23" style="fill:#ffffff; stroke:#ffffff; stroke-width:1" width="140" x="335" y="825"/>
<line style="fill:#000000; stroke:#000000; stroke-width:1" x1="335" x2="475" y1="825" y2="825"/>
<rect height="36" style="fill:#ffffff; stroke:#ffffff; stroke-width:1" width="140" x="335" y="788"/>
<line style="fill:#000000; stroke:#000000; stroke-width:1" x1="335" x2="475" y1="788" y2="788"/>
<text style="font-family:Dialog; font-size:10;" x="338" y="803">
description : text</text>
<text style="font-family:Dialog; font-size:10;" x="338" y="817">
body : richtext</text>
<rect height="83" style="fill: none; stroke:#000000; stroke-width:1" width="141" x="334" y="766"/>
<polyline points="406,715 406,766" style="fill:none; stroke:#000000; stroke-width:1"/>
<polygon points="406,715 411,725 406,735 401,725" style="fill:#000000; stroke:#000000; stroke-width:1"/>
<polygon points="406,715 411,725 406,735 401,725" style="fill:none; stroke:#000000; stroke-width:1"/>
<text style="font-family:Dialog; font-size:10;" x="418" y="736">
1</text>
<text style="font-family:Dialog; font-size:10;" x="413" y="757">
0..*</text>
<rect height="140" style="fill:#ffffff; stroke:#ffffff; stroke-width:1" width="223" x="518" y="590"/>
<rect height="16" style="fill:#ffffff; stroke:#ffffff; stroke-width:1" width="223" x="518" y="590"/>
<rect height="16" style="fill: none; stroke:#000000; stroke-width:1" width="223" x="518" y="590"/>
<rect height="14" style="fill:#ffffff; stroke:#ffffff; stroke-width:1" width="221" x="519" y="591"/>
<text style="font-family:Dialog; font-size:10;" x="599" y="605">
&lt;&lt;ordered&gt;&gt;</text>
<rect height="21" style="fill:#ffffff; stroke:#ffffff; stroke-width:1" width="223" x="518" y="606"/>
<text style="font-family:Dialog; font-size:10;" x="560" y="620">
HelpCenterReferenceManual</text>
<rect height="73" style="fill:#ffffff; stroke:#ffffff; stroke-width:1" width="222" x="519" y="656"/>
<line style="fill:#000000; stroke:#000000; stroke-width:1" x1="519" x2="741" y1="656" y2="656"/>
<text style="font-family:Dialog; font-size:10;" x="522" y="671">
getReferenceManualDescription() : void</text>
<text style="font-family:Dialog; font-size:10;" x="522" y="685">
getTOC() : void</text>
<text style="font-family:Dialog; font-size:10;" x="522" y="699">
getTOCInfo() : void</text>
<text style="font-family:Dialog; font-size:10;" x="522" y="713">
addImagePaths() : void</text>
<rect height="27" style="fill:#ffffff; stroke:#ffffff; stroke-width:1" width="222" x="519" y="628"/>
<line style="fill:#000000; stroke:#000000; stroke-width:1" x1="519" x2="741" y1="628" y2="628"/>
<text style="font-family:Dialog; font-size:10;" x="522" y="643">
description : text</text>
<rect height="140" style="fill: none; stroke:#000000; stroke-width:1" width="223" x="518" y="590"/>
<polyline points="606,539 606,590" style="fill:none; stroke:#000000; stroke-width:1"/>
<polygon points="606,539 611,549 606,559 601,549" style="fill:#000000; stroke:#000000; stroke-width:1"/>
<polygon points="606,539 611,549 606,559 601,549" style="fill:none; stroke:#000000; stroke-width:1"/>
<text style="font-family:Dialog; font-size:10;" x="618" y="560">
1</text>
<text style="font-family:Dialog; font-size:10;" x="613" y="581">
0..*</text>
<rect height="105" style="fill:#ffffff; stroke:#ffffff; stroke-width:1" width="209" x="526" y="782"/>
<rect height="16" style="fill:#ffffff; stroke:#ffffff; stroke-width:1" width="209" x="526" y="782"/>
<rect height="16" style="fill: none; stroke:#000000; stroke-width:1" width="209" x="526" y="782"/>
<rect height="14" style="fill:#ffffff; stroke:#ffffff; stroke-width:1" width="207" x="527" y="783"/>
<text style="font-family:Dialog; font-size:10;" x="600" y="797">
&lt;&lt;ordered&gt;&gt;</text>
<rect height="21" style="fill:#ffffff; stroke:#ffffff; stroke-width:1" width="209" x="526" y="798"/>
<text style="font-family:Dialog; font-size:10;" x="543" y="812">
HelpCenterReferenceManualSection</text>
<rect height="34" style="fill:#ffffff; stroke:#ffffff; stroke-width:1" width="208" x="527" y="852"/>
<line style="fill:#000000; stroke:#000000; stroke-width:1" x1="527" x2="735" y1="852" y2="852"/>
<text style="font-family:Dialog; font-size:10;" x="530" y="867">
getSectionDescription() : void</text>
<rect height="31" style="fill:#ffffff; stroke:#ffffff; stroke-width:1" width="208" x="527" y="820"/>
<line style="fill:#000000; stroke:#000000; stroke-width:1" x1="527" x2="735" y1="820" y2="820"/>
<text style="font-family:Dialog; font-size:10;" x="530" y="835">
description : text</text>
<rect height="105" style="fill: none; stroke:#000000; stroke-width:1" width="209" x="526" y="782"/>
<polyline points="606,730 606,782" style="fill:none; stroke:#000000; stroke-width:1"/>
<polygon points="606,730 611,740 606,750 601,740" style="fill:#000000; stroke:#000000; stroke-width:1"/>
<polygon points="606,730 611,740 606,750 601,740" style="fill:none; stroke:#000000; stroke-width:1"/>
<text style="font-family:Dialog; font-size:10;" x="618" y="751">
1</text>
<text style="font-family:Dialog; font-size:10;" x="613" y="773">
0..*</text>
<rect height="112" style="fill:#ffffff; stroke:#ffffff; stroke-width:1" width="208" x="494" y="958"/>
<rect height="16" style="fill:#ffffff; stroke:#ffffff; stroke-width:1" width="208" x="494" y="958"/>
<rect height="16" style="fill: none; stroke:#000000; stroke-width:1" width="208" x="494" y="958"/>
<rect height="14" style="fill:#ffffff; stroke:#ffffff; stroke-width:1" width="206" x="495" y="959"/>
<text style="font-family:Dialog; font-size:10;" x="562" y="973">
&lt;&lt;archetype&gt;&gt;</text>
<rect height="21" style="fill:#ffffff; stroke:#ffffff; stroke-width:1" width="208" x="494" y="974"/>
<text style="font-family:Dialog; font-size:10;" x="516" y="988">
HelpCenterReferenceManualPage</text>
<rect height="30" style="fill:#ffffff; stroke:#ffffff; stroke-width:1" width="207" x="495" y="1039"/>
<line style="fill:#000000; stroke:#000000; stroke-width:1" x1="495" x2="702" y1="1039" y2="1039"/>
<rect height="42" style="fill:#ffffff; stroke:#ffffff; stroke-width:1" width="207" x="495" y="996"/>
<line style="fill:#000000; stroke:#000000; stroke-width:1" x1="495" x2="702" y1="996" y2="996"/>
<text style="font-family:Dialog; font-size:10;" x="498" y="1011">
description : text</text>
<text style="font-family:Dialog; font-size:10;" x="498" y="1025">
body : richtext</text>
<rect height="112" style="fill: none; stroke:#000000; stroke-width:1" width="208" x="494" y="958"/>
<polyline points="606,887 606,958" style="fill:none; stroke:#000000; stroke-width:1"/>
<polygon points="606,887 611,897 606,907 601,897" style="fill:#000000; stroke:#000000; stroke-width:1"/>
<polygon points="606,887 611,897 606,907 601,897" style="fill:none; stroke:#000000; stroke-width:1"/>
<text style="font-family:Dialog; font-size:10;" x="618" y="908">
1</text>
<text style="font-family:Dialog; font-size:10;" x="613" y="949">
0..*</text>
<polyline points="735,830 750,830 750,878 735,878" style="fill:none; stroke:#000000; stroke-width:1"/>
<polygon points="735,830 745,825 755,830 745,835" style="fill:#000000; stroke:#000000; stroke-width:1"/>
<polygon points="735,830 745,825 755,830 745,835" style="fill:none; stroke:#000000; stroke-width:1"/>
<text style="font-family:Dialog; font-size:10;" x="757" y="826">
1</text>
<text style="font-family:Dialog; font-size:10;" x="752" y="894">
0..*</text>
<polyline points="518,730 510,750 510,958" style="fill:none; stroke:#000000; stroke-width:1"/>
<polygon points="518,730 518,741 511,749 509,737" style="fill:#000000; stroke:#000000; stroke-width:1"/>
<polygon points="518,730 518,741 511,749 509,737" style="fill:none; stroke:#000000; stroke-width:1"/>
<text style="font-family:Dialog; font-size:10;" x="523" y="755">
1</text>
<text style="font-family:Dialog; font-size:10;" x="517" y="949">
0..*</text>
<rect height="107" style="fill:#ffffff; stroke:#ffffff; stroke-width:1" width="95" x="758" y="614"/>
<rect height="16" style="fill:#ffffff; stroke:#ffffff; stroke-width:1" width="95" x="758" y="614"/>
<rect height="16" style="fill: none; stroke:#000000; stroke-width:1" width="95" x="758" y="614"/>
<rect height="14" style="fill:#ffffff; stroke:#ffffff; stroke-width:1" width="93" x="759" y="615"/>
<text style="font-family:Dialog; font-size:10;" x="770" y="629">
&lt;&lt;archetype&gt;&gt;</text>
<rect height="21" style="fill:#ffffff; stroke:#ffffff; stroke-width:1" width="95" x="758" y="630"/>
<text style="font-family:Dialog; font-size:10;" x="769" y="644">
HelpCenterLink</text>
<rect height="27" style="fill:#ffffff; stroke:#ffffff; stroke-width:1" width="94" x="759" y="693"/>
<line style="fill:#000000; stroke:#000000; stroke-width:1" x1="759" x2="853" y1="693" y2="693"/>
<rect height="40" style="fill:#ffffff; stroke:#ffffff; stroke-width:1" width="94" x="759" y="652"/>
<line style="fill:#000000; stroke:#000000; stroke-width:1" x1="759" x2="853" y1="652" y2="652"/>
<text style="font-family:Dialog; font-size:10;" x="762" y="667">
description : text</text>
<text style="font-family:Dialog; font-size:10;" x="762" y="681">
url : string</text>
<rect height="107" style="fill: none; stroke:#000000; stroke-width:1" width="95" x="758" y="614"/>
<polyline points="814,547 814,614" style="fill:none; stroke:#000000; stroke-width:1"/>
<polygon points="814,547 819,557 814,567 809,557" style="fill:#000000; stroke:#000000; stroke-width:1"/>
<polygon points="814,547 819,557 814,567 809,557" style="fill:none; stroke:#000000; stroke-width:1"/>
<text style="font-family:Dialog; font-size:10;" x="826" y="568">
1</text>
<text style="font-family:Dialog; font-size:10;" x="821" y="605">
0..*</text>
<rect height="168" style="fill:#ffffff; stroke:#ffffff; stroke-width:1" width="169" x="1238" y="614"/>
<rect height="16" style="fill:#ffffff; stroke:#ffffff; stroke-width:1" width="169" x="1238" y="614"/>
<rect height="16" style="fill: none; stroke:#000000; stroke-width:1" width="169" x="1238" y="614"/>
<rect height="14" style="fill:#ffffff; stroke:#ffffff; stroke-width:1" width="167" x="1239" y="615"/>
<text style="font-family:Dialog; font-size:10;" x="1287" y="629">
&lt;&lt;archetype&gt;&gt;</text>
<rect height="21" style="fill:#ffffff; stroke:#ffffff; stroke-width:1" width="169" x="1238" y="630"/>
<text style="font-family:Dialog; font-size:10;" x="1253" y="644">
HelpCenterInstructionalVideo</text>
<rect height="30" style="fill:#ffffff; stroke:#ffffff; stroke-width:1" width="168" x="1239" y="751"/>
<line style="fill:#000000; stroke:#000000; stroke-width:1" x1="1239" x2="1407" y1="751" y2="751"/>
<rect height="98" style="fill:#ffffff; stroke:#ffffff; stroke-width:1" width="168" x="1239" y="652"/>
<line style="fill:#000000; stroke:#000000; stroke-width:1" x1="1239" x2="1407" y1="652" y2="652"/>
<text style="font-family:Dialog; font-size:10;" x="1242" y="667">
description : text</text>
<text style="font-family:Dialog; font-size:10;" x="1242" y="681">
video_file : file</text>
<text style="font-family:Dialog; font-size:10;" x="1242" y="695">
screenshot : image</text>
<text style="font-family:Dialog; font-size:10;" x="1242" y="709">
duration : string</text>
<text style="font-family:Dialog; font-size:10;" x="1242" y="723">
width : int</text>
<text style="font-family:Dialog; font-size:10;" x="1242" y="737">
height : int</text>
<rect height="168" style="fill: none; stroke:#000000; stroke-width:1" width="169" x="1238" y="614"/>
<polyline points="1318,563 1318,614" style="fill:none; stroke:#000000; stroke-width:1"/>
<polygon points="1318,563 1323,573 1318,583 1313,573" style="fill:#000000; stroke:#000000; stroke-width:1"/>
<polygon points="1318,563 1323,573 1318,583 1313,573" style="fill:none; stroke:#000000; stroke-width:1"/>
<text style="font-family:Dialog; font-size:10;" x="1330" y="584">
1</text>
<text style="font-family:Dialog; font-size:10;" x="1325" y="605">
0..*</text>
<text style="font-family:Serif; font-size:24;" x="70" y="46">
PloneHelpCenter</text>
<text style="font-family:Serif; font-size:24;" x="22" y="78">
Class ContainmentDiagram</text>
<rect height="232" style="fill:#ffffff; stroke:#ffffff; stroke-width:1" width="187" x="310" y="142"/>
<rect height="16" style="fill:#ffffff; stroke:#ffffff; stroke-width:1" width="187" x="310" y="142"/>
<rect height="16" style="fill: none; stroke:#000000; stroke-width:1" width="187" x="310" y="142"/>
<rect height="14" style="fill:#ffffff; stroke:#ffffff; stroke-width:1" width="185" x="311" y="143"/>
<text style="font-family:Dialog; font-size:10;" x="373" y="157">
&lt;&lt;ordered&gt;&gt;</text>
<rect height="21" style="fill:#ffffff; stroke:#ffffff; stroke-width:1" width="187" x="310" y="158"/>
<text style="font-family:Dialog; font-size:10;" x="377" y="172">
HelpCenter</text>
<rect height="70" style="fill:#ffffff; stroke:#ffffff; stroke-width:1" width="186" x="311" y="303"/>
<line style="fill:#000000; stroke:#000000; stroke-width:1" x1="311" x2="497" y1="303" y2="303"/>
<text style="font-family:Dialog; font-size:10;" x="314" y="318">
getPHCObject() : void</text>
<text style="font-family:Dialog; font-size:10;" x="314" y="332">
getPHCUrl() : void</text>
<text style="font-family:Dialog; font-size:10;" x="314" y="346">
getPHCPath() : void</text>
<rect height="122" style="fill:#ffffff; stroke:#ffffff; stroke-width:1" width="186" x="311" y="180"/>
<line style="fill:#000000; stroke:#000000; stroke-width:1" x1="311" x2="497" y1="180" y2="180"/>
<text style="font-family:Dialog; font-size:10;" x="314" y="195">
description : text</text>
<text style="font-family:Dialog; font-size:10;" x="314" y="209">
audiencesVocab : lines</text>
<text style="font-family:Dialog; font-size:10;" x="314" y="223">
versionsVocab : lines</text>
<text style="font-family:Dialog; font-size:10;" x="314" y="237">
currentVersions : multiselection</text>
<text style="font-family:Dialog; font-size:10;" x="314" y="251">
sectionsVocab : lines</text>
<text style="font-family:Dialog; font-size:10;" x="314" y="265">
rights : text</text>
<text style="font-family:Dialog; font-size:10;" x="314" y="279">
constrainSearches : boolean</text>
<rect height="232" style="fill: none; stroke:#000000; stroke-width:1" width="187" x="310" y="142"/>
</svg>
