<?xml version="1.0" encoding="utf-8" ?>
<!DOCTYPE svg PUBLIC '-//W3C//DTD SVG 20001102//EN' 'http://www.w3.org/TR/2000/CR-SVG-20001102/DTD/svg-20001102.dtd'>
<svg height="1004" width="1940" xmlns="http://www.w3.org/2000/svg">
<rect height="21" style="fill:#ffffff; stroke:#ffffff; stroke-width:1" width="1823" x="54" y="174"/>
<rect height="20" style="fill: none; stroke:#000000; stroke-width:1" width="1822" x="54" y="174"/>
<text style="font-family:Dialog; font-size:10;" x="58" y="188">
content</text>
<rect height="796" style="fill:#ffffff; stroke:#ffffff; stroke-width:1" width="1872" x="54" y="194"/>
<rect height="795" style="fill: none; stroke:#000000; stroke-width:1" width="1871" x="54" y="194"/>
<rect height="93" style="fill:#ffffff; stroke:#ffffff; stroke-width:1" width="123" x="1190" y="558"/>
<rect height="16" style="fill:#ffffff; stroke:#ffffff; stroke-width:1" width="123" x="1190" y="558"/>
<rect height="16" style="fill: none; stroke:#000000; stroke-width:1" width="123" x="1190" y="558"/>
<rect height="14" style="fill:#ffffff; stroke:#ffffff; stroke-width:1" width="121" x="1191" y="559"/>
<text style="font-family:Dialog; font-size:10;" x="1216" y="573">
&lt;&lt;archetype&gt;&gt;</text>
<rect height="21" style="fill:#ffffff; stroke:#ffffff; stroke-width:1" width="123" x="1190" y="574"/>
<text style="font-family:Dialog; font-size:10;" x="1202" y="588">
HelpCenterDefinition</text>
<rect height="27" style="fill:#ffffff; stroke:#ffffff; stroke-width:1" width="122" x="1191" y="623"/>
<line style="fill:#000000; stroke:#000000; stroke-width:1" x1="1191" x2="1313" y1="623" y2="623"/>
<rect height="26" style="fill:#ffffff; stroke:#ffffff; stroke-width:1" width="122" x="1191" y="596"/>
<line style="fill:#000000; stroke:#000000; stroke-width:1" x1="1191" x2="1313" y1="596" y2="596"/>
<text style="font-family:Dialog; font-size:10;" x="1194" y="611">
description : text</text>
<rect height="93" style="fill: none; stroke:#000000; stroke-width:1" width="123" x="1190" y="558"/>
<rect height="219" style="fill:#ffc8ff; stroke:#ffc8ff; stroke-width:1" width="160" x="1278" y="214"/>
<rect height="16" style="fill:#ffc8ff; stroke:#ffc8ff; stroke-width:1" width="160" x="1278" y="214"/>
<rect height="16" style="fill: none; stroke:#000000; stroke-width:1" width="160" x="1278" y="214"/>
<rect height="14" style="fill:#ffc8ff; stroke:#ffc8ff; stroke-width:1" width="158" x="1279" y="215"/>
<text style="font-family:Dialog; font-size:10;" x="1333" y="229">
&lt;&lt;mixin&gt;&gt;</text>
<rect height="21" style="fill:#ffc8ff; stroke:#ffc8ff; stroke-width:1" width="160" x="1278" y="230"/>
<text style="font-family:Dialog; font-size:10;" x="1329" y="244">
PHCContent</text>
<rect height="147" style="fill:#ffc8ff; stroke:#ffc8ff; stroke-width:1" width="159" x="1279" y="285"/>
<line style="fill:#000000; stroke:#000000; stroke-width:1" x1="1279" x2="1438" y1="285" y2="285"/>
<text style="font-family:Dialog; font-size:10;" x="1282" y="300">
getVersionsVocab() : tuple</text>
<text style="font-family:Dialog; font-size:10;" x="1282" y="314">
getSectionsVocab() : tuple</text>
<text style="font-family:Dialog; font-size:10;" x="1282" y="328">
setSections() : void</text>
<text style="font-family:Dialog; font-size:10;" x="1282" y="342">
getAudiencesVocab() : tuple</text>
<text style="font-family:Dialog; font-size:10;" x="1282" y="356">
Versions() : string</text>
<text style="font-family:Dialog; font-size:10;" x="1282" y="370">
getAudiencesVocab() : tuple</text>
<text style="font-family:Dialog; font-size:10;" x="1282" y="384">
Audiences() : string</text>
<text style="font-family:Dialog; font-size:10;" x="1282" y="398">
isOutdated() : boolean</text>
<text style="font-family:Dialog; font-size:10;" x="1282" y="412">
getRelatedItems() : list</text>
<rect height="32" style="fill:#ffc8ff; stroke:#ffc8ff; stroke-width:1" width="159" x="1279" y="252"/>
<line style="fill:#000000; stroke:#000000; stroke-width:1" x1="1279" x2="1438" y1="252" y2="252"/>
<text style="font-family:Dialog; font-size:10;" x="1282" y="267">
sections : tuple</text>
<rect height="219" style="fill: none; stroke:#000000; stroke-width:1" width="160" x="1278" y="214"/>
<polyline points="1294,558 1294,433" style="fill:none; stroke:#000000; stroke-width:1"/>
<polygon points="1294,433 1301,445 1287,445" style="fill:#ffffff; stroke:#ffffff; stroke-width:1"/>
<polygon points="1294,433 1301,445 1287,445" style="fill:none; stroke:#000000; stroke-width:1"/>
<polygon points="1558,14 1899,14 1909,24 1909,158 1558,158 1558,14" style="fill:#ffffc8; stroke:#ffffc8; stroke-width:1"/>
<polyline points="1558,14 1899,14 1909,24 1909,158 1558,158 1558,14" style="fill:none; stroke:#000000; stroke-width:1"/>
<polygon points="1899,14 1909,24 1899,24 1899,14" style="fill:#ffffc8; stroke:#ffffc8; stroke-width:1"/>
<polyline points="1899,14 1909,24 1899,24 1899,14" style="fill:none; stroke:#000000; stroke-width:1"/>
<text style="font-family:Dialog; font-size:10;" x="1560" y="30">
PHCContent</text>
<text style="font-family:Dialog; font-size:10;" x="1560" y="58">
A simple  mixin class to provide contentish functions</text>
<text style="font-family:Dialog; font-size:10;" x="1560" y="72">
    archetype no schema defined</text>
<text style="font-family:Dialog; font-size:10;" x="1560" y="86">
       </text>
<text style="font-family:Dialog; font-size:10;" x="1560" y="100">
 # The sections field may be in use with a "topic : subtopic" pattern.</text>
<text style="font-family:Dialog; font-size:10;" x="1560" y="114">
        # If so, make sure that the 'topic' is set as a separate item</text>
<text style="font-family:Dialog; font-size:10;" x="1560" y="128">
        # so that we'll be able to look it up by topic as well as</text>
<text style="font-family:Dialog; font-size:10;" x="1560" y="142">
        # by "topic : subtopic"</text>
<line style="fill:#000000; stroke:#000000; stroke-width:1" x1="1558" x2="1554" y1="159" y2="161"/>
<line style="fill:#000000; stroke:#000000; stroke-width:1" x1="1549" x2="1545" y1="163" y2="165"/>
<line style="fill:#000000; stroke:#000000; stroke-width:1" x1="1540" x2="1536" y1="167" y2="169"/>
<line style="fill:#000000; stroke:#000000; stroke-width:1" x1="1531" x2="1527" y1="171" y2="173"/>
<line style="fill:#000000; stroke:#000000; stroke-width:1" x1="1522" x2="1518" y1="175" y2="177"/>
<line style="fill:#000000; stroke:#000000; stroke-width:1" x1="1513" x2="1508" y1="179" y2="181"/>
<line style="fill:#000000; stroke:#000000; stroke-width:1" x1="1504" x2="1499" y1="184" y2="186"/>
<line style="fill:#000000; stroke:#000000; stroke-width:1" x1="1495" x2="1490" y1="188" y2="190"/>
<line style="fill:#000000; stroke:#000000; stroke-width:1" x1="1486" x2="1481" y1="192" y2="194"/>
<line style="fill:#000000; stroke:#000000; stroke-width:1" x1="1477" x2="1472" y1="196" y2="198"/>
<line style="fill:#000000; stroke:#000000; stroke-width:1" x1="1468" x2="1463" y1="200" y2="202"/>
<line style="fill:#000000; stroke:#000000; stroke-width:1" x1="1458" x2="1454" y1="204" y2="206"/>
<line style="fill:#000000; stroke:#000000; stroke-width:1" x1="1449" x2="1445" y1="209" y2="211"/>
<line style="fill:#000000; stroke:#000000; stroke-width:1" x1="1440" x2="1438" y1="213" y2="214"/>
<rect height="109" style="fill:#ffffff; stroke:#ffffff; stroke-width:1" width="187" x="1670" y="454"/>
<rect height="16" style="fill:#ffffff; stroke:#ffffff; stroke-width:1" width="187" x="1670" y="454"/>
<rect height="16" style="fill: none; stroke:#000000; stroke-width:1" width="187" x="1670" y="454"/>
<rect height="14" style="fill:#ffffff; stroke:#ffffff; stroke-width:1" width="185" x="1671" y="455"/>
<text style="font-family:Dialog; font-size:10;" x="1733" y="469">
&lt;&lt;ordered&gt;&gt;</text>
<rect height="21" style="fill:#ffffff; stroke:#ffffff; stroke-width:1" width="187" x="1670" y="470"/>
<text style="font-family:Dialog; font-size:10;" x="1701" y="484">
HelpCenterErrorReference</text>
<rect height="29" style="fill:#ffffff; stroke:#ffffff; stroke-width:1" width="186" x="1671" y="533"/>
<line style="fill:#000000; stroke:#000000; stroke-width:1" x1="1671" x2="1857" y1="533" y2="533"/>
<text style="font-family:Dialog; font-size:10;" x="1674" y="548">
action:attachments() : void</text>
<rect height="40" style="fill:#ffffff; stroke:#ffffff; stroke-width:1" width="186" x="1671" y="492"/>
<line style="fill:#000000; stroke:#000000; stroke-width:1" x1="1671" x2="1857" y1="492" y2="492"/>
<text style="font-family:Dialog; font-size:10;" x="1674" y="507">
description : text</text>
<text style="font-family:Dialog; font-size:10;" x="1674" y="521">
body : richtext</text>
<rect height="109" style="fill: none; stroke:#000000; stroke-width:1" width="187" x="1670" y="454"/>
<polyline points="1670,454 1534,334 1438,334" style="fill:none; stroke:#000000; stroke-width:1"/>
<polygon points="1438,334 1450,327 1450,341" style="fill:#ffffff; stroke:#ffffff; stroke-width:1"/>
<polygon points="1438,334 1450,327 1450,341" style="fill:none; stroke:#000000; stroke-width:1"/>
<rect height="93" style="fill:#ffffff; stroke:#ffffff; stroke-width:1" width="185" x="102" y="262"/>
<rect height="16" style="fill:#ffffff; stroke:#ffffff; stroke-width:1" width="185" x="102" y="262"/>
<rect height="16" style="fill: none; stroke:#000000; stroke-width:1" width="185" x="102" y="262"/>
<rect height="14" style="fill:#ffffff; stroke:#ffffff; stroke-width:1" width="183" x="103" y="263"/>
<text style="font-family:Dialog; font-size:10;" x="169" y="277">
&lt;&lt;folder&gt;&gt;</text>
<rect height="21" style="fill:#ffffff; stroke:#ffffff; stroke-width:1" width="185" x="102" y="278"/>
<text style="font-family:Dialog; font-size:10;" x="117" y="292">
HelpCenterErrorReferenceFolder</text>
<rect height="27" style="fill:#ffffff; stroke:#ffffff; stroke-width:1" width="184" x="103" y="327"/>
<line style="fill:#000000; stroke:#000000; stroke-width:1" x1="103" x2="287" y1="327" y2="327"/>
<rect height="26" style="fill:#ffffff; stroke:#ffffff; stroke-width:1" width="184" x="103" y="300"/>
<line style="fill:#000000; stroke:#000000; stroke-width:1" x1="103" x2="287" y1="300" y2="300"/>
<text style="font-family:Dialog; font-size:10;" x="106" y="315">
description : text</text>
<rect height="93" style="fill: none; stroke:#000000; stroke-width:1" width="185" x="102" y="262"/>
<rect height="121" style="fill:#ffc8ff; stroke:#ffc8ff; stroke-width:1" width="149" x="414" y="222"/>
<rect height="16" style="fill:#ffc8ff; stroke:#ffc8ff; stroke-width:1" width="149" x="414" y="222"/>
<rect height="16" style="fill: none; stroke:#000000; stroke-width:1" width="149" x="414" y="222"/>
<rect height="14" style="fill:#ffc8ff; stroke:#ffc8ff; stroke-width:1" width="147" x="415" y="223"/>
<text style="font-family:Dialog; font-size:10;" x="463" y="237">
&lt;&lt;mixin&gt;&gt;</text>
<rect height="21" style="fill:#ffc8ff; stroke:#ffc8ff; stroke-width:1" width="149" x="414" y="238"/>
<text style="font-family:Dialog; font-size:10;" x="463" y="252">
PHCFolder</text>
<rect height="57" style="fill:#ffc8ff; stroke:#ffc8ff; stroke-width:1" width="148" x="415" y="285"/>
<line style="fill:#000000; stroke:#000000; stroke-width:1" x1="415" x2="563" y1="285" y2="285"/>
<text style="font-family:Dialog; font-size:10;" x="418" y="300">
getAudiencesVocab() : list</text>
<text style="font-family:Dialog; font-size:10;" x="418" y="314">
getVersionsVocab() : list</text>
<text style="font-family:Dialog; font-size:10;" x="418" y="328">
getSectionsVocab() : list</text>
<rect height="24" style="fill:#ffc8ff; stroke:#ffc8ff; stroke-width:1" width="148" x="415" y="260"/>
<line style="fill:#000000; stroke:#000000; stroke-width:1" x1="415" x2="563" y1="260" y2="260"/>
<rect height="121" style="fill: none; stroke:#000000; stroke-width:1" width="149" x="414" y="222"/>
<polyline points="287,278 414,278" style="fill:none; stroke:#000000; stroke-width:1"/>
<polygon points="414,278 402,285 402,271" style="fill:#ffffff; stroke:#ffffff; stroke-width:1"/>
<polygon points="414,278 402,285 402,271" style="fill:none; stroke:#000000; stroke-width:1"/>
<rect height="93" style="fill:#ffffff; stroke:#ffffff; stroke-width:1" width="129" x="382" y="558"/>
<rect height="16" style="fill:#ffffff; stroke:#ffffff; stroke-width:1" width="129" x="382" y="558"/>
<rect height="16" style="fill: none; stroke:#000000; stroke-width:1" width="129" x="382" y="558"/>
<rect height="14" style="fill:#ffffff; stroke:#ffffff; stroke-width:1" width="127" x="383" y="559"/>
<text style="font-family:Dialog; font-size:10;" x="416" y="573">
&lt;&lt;ordered&gt;&gt;</text>
<rect height="21" style="fill:#ffffff; stroke:#ffffff; stroke-width:1" width="129" x="382" y="574"/>
<text style="font-family:Dialog; font-size:10;" x="394" y="588">
HelpCenterFAQFolder</text>
<rect height="27" style="fill:#ffffff; stroke:#ffffff; stroke-width:1" width="128" x="383" y="623"/>
<line style="fill:#000000; stroke:#000000; stroke-width:1" x1="383" x2="511" y1="623" y2="623"/>
<rect height="26" style="fill:#ffffff; stroke:#ffffff; stroke-width:1" width="128" x="383" y="596"/>
<line style="fill:#000000; stroke:#000000; stroke-width:1" x1="383" x2="511" y1="596" y2="596"/>
<text style="font-family:Dialog; font-size:10;" x="386" y="611">
description : text</text>
<rect height="93" style="fill: none; stroke:#000000; stroke-width:1" width="129" x="382" y="558"/>
<polyline points="462,558 462,343" style="fill:none; stroke:#000000; stroke-width:1"/>
<polygon points="462,343 469,355 455,355" style="fill:#ffffff; stroke:#ffffff; stroke-width:1"/>
<polygon points="462,343 469,355 455,355" style="fill:none; stroke:#000000; stroke-width:1"/>
<rect height="107" style="fill:#ffffff; stroke:#ffffff; stroke-width:1" width="95" x="1326" y="854"/>
<rect height="16" style="fill:#ffffff; stroke:#ffffff; stroke-width:1" width="95" x="1326" y="854"/>
<rect height="16" style="fill: none; stroke:#000000; stroke-width:1" width="95" x="1326" y="854"/>
<rect height="14" style="fill:#ffffff; stroke:#ffffff; stroke-width:1" width="93" x="1327" y="855"/>
<text style="font-family:Dialog; font-size:10;" x="1338" y="869">
&lt;&lt;archetype&gt;&gt;</text>
<rect height="21" style="fill:#ffffff; stroke:#ffffff; stroke-width:1" width="95" x="1326" y="870"/>
<text style="font-family:Dialog; font-size:10;" x="1336" y="884">
HelpCenterFAQ</text>
<rect height="27" style="fill:#ffffff; stroke:#ffffff; stroke-width:1" width="94" x="1327" y="933"/>
<line style="fill:#000000; stroke:#000000; stroke-width:1" x1="1327" x2="1421" y1="933" y2="933"/>
<rect height="40" style="fill:#ffffff; stroke:#ffffff; stroke-width:1" width="94" x="1327" y="892"/>
<line style="fill:#000000; stroke:#000000; stroke-width:1" x1="1327" x2="1421" y1="892" y2="892"/>
<text style="font-family:Dialog; font-size:10;" x="1330" y="907">
description : text</text>
<text style="font-family:Dialog; font-size:10;" x="1330" y="921">
answer : richtext</text>
<rect height="107" style="fill: none; stroke:#000000; stroke-width:1" width="95" x="1326" y="854"/>
<polyline points="1374,854 1374,433" style="fill:none; stroke:#000000; stroke-width:1"/>
<polygon points="1374,433 1381,445 1367,445" style="fill:#ffffff; stroke:#ffffff; stroke-width:1"/>
<polygon points="1374,433 1381,445 1367,445" style="fill:none; stroke:#000000; stroke-width:1"/>
<rect height="93" style="fill:#ffffff; stroke:#ffffff; stroke-width:1" width="120" x="238" y="678"/>
<rect height="16" style="fill:#ffffff; stroke:#ffffff; stroke-width:1" width="120" x="238" y="678"/>
<rect height="16" style="fill: none; stroke:#000000; stroke-width:1" width="120" x="238" y="678"/>
<rect height="14" style="fill:#ffffff; stroke:#ffffff; stroke-width:1" width="118" x="239" y="679"/>
<text style="font-family:Dialog; font-size:10;" x="268" y="693">
&lt;&lt;ordered&gt;&gt;</text>
<rect height="21" style="fill:#ffffff; stroke:#ffffff; stroke-width:1" width="120" x="238" y="694"/>
<text style="font-family:Dialog; font-size:10;" x="252" y="708">
HelpCenterGlossary</text>
<rect height="27" style="fill:#ffffff; stroke:#ffffff; stroke-width:1" width="119" x="239" y="743"/>
<line style="fill:#000000; stroke:#000000; stroke-width:1" x1="239" x2="358" y1="743" y2="743"/>
<rect height="26" style="fill:#ffffff; stroke:#ffffff; stroke-width:1" width="119" x="239" y="716"/>
<line style="fill:#000000; stroke:#000000; stroke-width:1" x1="239" x2="358" y1="716" y2="716"/>
<text style="font-family:Dialog; font-size:10;" x="242" y="731">
description : text</text>
<rect height="93" style="fill: none; stroke:#000000; stroke-width:1" width="120" x="238" y="678"/>
<polyline points="358,678 422,398 422,343" style="fill:none; stroke:#000000; stroke-width:1"/>
<polygon points="422,343 429,355 415,355" style="fill:#ffffff; stroke:#ffffff; stroke-width:1"/>
<polygon points="422,343 429,355 415,355" style="fill:none; stroke:#000000; stroke-width:1"/>
<rect height="93" style="fill:#ffffff; stroke:#ffffff; stroke-width:1" width="145" x="198" y="542"/>
<rect height="16" style="fill:#ffffff; stroke:#ffffff; stroke-width:1" width="145" x="198" y="542"/>
<rect height="16" style="fill: none; stroke:#000000; stroke-width:1" width="145" x="198" y="542"/>
<rect height="14" style="fill:#ffffff; stroke:#ffffff; stroke-width:1" width="143" x="199" y="543"/>
<text style="font-family:Dialog; font-size:10;" x="240" y="557">
&lt;&lt;ordered&gt;&gt;</text>
<rect height="21" style="fill:#ffffff; stroke:#ffffff; stroke-width:1" width="145" x="198" y="558"/>
<text style="font-family:Dialog; font-size:10;" x="212" y="572">
HelpCenterHowToFolder</text>
<rect height="27" style="fill:#ffffff; stroke:#ffffff; stroke-width:1" width="144" x="199" y="607"/>
<line style="fill:#000000; stroke:#000000; stroke-width:1" x1="199" x2="343" y1="607" y2="607"/>
<rect height="26" style="fill:#ffffff; stroke:#ffffff; stroke-width:1" width="144" x="199" y="580"/>
<line style="fill:#000000; stroke:#000000; stroke-width:1" x1="199" x2="343" y1="580" y2="580"/>
<text style="font-family:Dialog; font-size:10;" x="202" y="595">
description : text</text>
<rect height="93" style="fill: none; stroke:#000000; stroke-width:1" width="145" x="198" y="542"/>
<rect height="93" style="fill:#ffffff; stroke:#ffffff; stroke-width:1" width="147" x="614" y="494"/>
<rect height="16" style="fill:#ffffff; stroke:#ffffff; stroke-width:1" width="147" x="614" y="494"/>
<rect height="16" style="fill: none; stroke:#000000; stroke-width:1" width="147" x="614" y="494"/>
<rect height="14" style="fill:#ffffff; stroke:#ffffff; stroke-width:1" width="145" x="615" y="495"/>
<text style="font-family:Dialog; font-size:10;" x="657" y="509">
&lt;&lt;ordered&gt;&gt;</text>
<rect height="21" style="fill:#ffffff; stroke:#ffffff; stroke-width:1" width="147" x="614" y="510"/>
<text style="font-family:Dialog; font-size:10;" x="627" y="524">
HelpCenterTutorialFolder</text>
<rect height="27" style="fill:#ffffff; stroke:#ffffff; stroke-width:1" width="146" x="615" y="559"/>
<line style="fill:#000000; stroke:#000000; stroke-width:1" x1="615" x2="761" y1="559" y2="559"/>
<rect height="26" style="fill:#ffffff; stroke:#ffffff; stroke-width:1" width="146" x="615" y="532"/>
<line style="fill:#000000; stroke:#000000; stroke-width:1" x1="615" x2="761" y1="532" y2="532"/>
<text style="font-family:Dialog; font-size:10;" x="618" y="547">
description : text</text>
<rect height="93" style="fill: none; stroke:#000000; stroke-width:1" width="147" x="614" y="494"/>
<rect height="91" style="fill:#ffffff; stroke:#ffffff; stroke-width:1" width="203" x="486" y="670"/>
<rect height="16" style="fill:#ffffff; stroke:#ffffff; stroke-width:1" width="203" x="486" y="670"/>
<rect height="16" style="fill: none; stroke:#000000; stroke-width:1" width="203" x="486" y="670"/>
<rect height="14" style="fill:#ffffff; stroke:#ffffff; stroke-width:1" width="201" x="487" y="671"/>
<text style="font-family:Dialog; font-size:10;" x="557" y="685">
&lt;&lt;ordered&gt;&gt;</text>
<rect height="21" style="fill:#ffffff; stroke:#ffffff; stroke-width:1" width="203" x="486" y="686"/>
<text style="font-family:Dialog; font-size:10;" x="503" y="700">
HelpCenterReferenceManualFolder</text>
<rect height="27" style="fill:#ffffff; stroke:#ffffff; stroke-width:1" width="202" x="487" y="733"/>
<line style="fill:#000000; stroke:#000000; stroke-width:1" x1="487" x2="689" y1="733" y2="733"/>
<rect height="24" style="fill:#ffffff; stroke:#ffffff; stroke-width:1" width="202" x="487" y="708"/>
<line style="fill:#000000; stroke:#000000; stroke-width:1" x1="487" x2="689" y1="708" y2="708"/>
<rect height="91" style="fill: none; stroke:#000000; stroke-width:1" width="203" x="486" y="670"/>
<rect height="93" style="fill:#ffffff; stroke:#ffffff; stroke-width:1" width="125" x="702" y="278"/>
<rect height="16" style="fill:#ffffff; stroke:#ffffff; stroke-width:1" width="125" x="702" y="278"/>
<rect height="16" style="fill: none; stroke:#000000; stroke-width:1" width="125" x="702" y="278"/>
<rect height="14" style="fill:#ffffff; stroke:#ffffff; stroke-width:1" width="123" x="703" y="279"/>
<text style="font-family:Dialog; font-size:10;" x="734" y="293">
&lt;&lt;ordered&gt;&gt;</text>
<rect height="21" style="fill:#ffffff; stroke:#ffffff; stroke-width:1" width="125" x="702" y="294"/>
<text style="font-family:Dialog; font-size:10;" x="713" y="308">
HelpCenterLinkFolder</text>
<rect height="27" style="fill:#ffffff; stroke:#ffffff; stroke-width:1" width="124" x="703" y="343"/>
<line style="fill:#000000; stroke:#000000; stroke-width:1" x1="703" x2="827" y1="343" y2="343"/>
<rect height="26" style="fill:#ffffff; stroke:#ffffff; stroke-width:1" width="124" x="703" y="316"/>
<line style="fill:#000000; stroke:#000000; stroke-width:1" x1="703" x2="827" y1="316" y2="316"/>
<text style="font-family:Dialog; font-size:10;" x="706" y="331">
description : text</text>
<rect height="93" style="fill: none; stroke:#000000; stroke-width:1" width="125" x="702" y="278"/>
<rect height="93" style="fill:#ffffff; stroke:#ffffff; stroke-width:1" width="204" x="102" y="398"/>
<rect height="16" style="fill:#ffffff; stroke:#ffffff; stroke-width:1" width="204" x="102" y="398"/>
<rect height="16" style="fill: none; stroke:#000000; stroke-width:1" width="204" x="102" y="398"/>
<rect height="14" style="fill:#ffffff; stroke:#ffffff; stroke-width:1" width="202" x="103" y="399"/>
<text style="font-family:Dialog; font-size:10;" x="174" y="413">
&lt;&lt;ordered&gt;&gt;</text>
<rect height="21" style="fill:#ffffff; stroke:#ffffff; stroke-width:1" width="204" x="102" y="414"/>
<text style="font-family:Dialog; font-size:10;" x="119" y="428">
HelpCenterInstructionalVideoFolder</text>
<rect height="27" style="fill:#ffffff; stroke:#ffffff; stroke-width:1" width="203" x="103" y="463"/>
<line style="fill:#000000; stroke:#000000; stroke-width:1" x1="103" x2="306" y1="463" y2="463"/>
<rect height="26" style="fill:#ffffff; stroke:#ffffff; stroke-width:1" width="203" x="103" y="436"/>
<line style="fill:#000000; stroke:#000000; stroke-width:1" x1="103" x2="306" y1="436" y2="436"/>
<text style="font-family:Dialog; font-size:10;" x="106" y="451">
description : text</text>
<rect height="93" style="fill: none; stroke:#000000; stroke-width:1" width="204" x="102" y="398"/>
<polyline points="343,542 358,318 414,318" style="fill:none; stroke:#000000; stroke-width:1"/>
<polygon points="414,318 402,325 402,311" style="fill:#ffffff; stroke:#ffffff; stroke-width:1"/>
<polygon points="414,318 402,325 402,311" style="fill:none; stroke:#000000; stroke-width:1"/>
<rect height="125" style="fill:#ffffff; stroke:#ffffff; stroke-width:1" width="110" x="1454" y="758"/>
<rect height="16" style="fill:#ffffff; stroke:#ffffff; stroke-width:1" width="110" x="1454" y="758"/>
<rect height="16" style="fill: none; stroke:#000000; stroke-width:1" width="110" x="1454" y="758"/>
<rect height="14" style="fill:#ffffff; stroke:#ffffff; stroke-width:1" width="108" x="1455" y="759"/>
<text style="font-family:Dialog; font-size:10;" x="1483" y="773">
&lt;&lt;folder&gt;&gt;</text>
<rect height="21" style="fill:#ffffff; stroke:#ffffff; stroke-width:1" width="110" x="1454" y="774"/>
<text style="font-family:Dialog; font-size:10;" x="1466" y="788">
HelpCenterHowTo</text>
<rect height="44" style="fill:#ffffff; stroke:#ffffff; stroke-width:1" width="109" x="1455" y="838"/>
<line style="fill:#000000; stroke:#000000; stroke-width:1" x1="1455" x2="1564" y1="838" y2="838"/>
<text style="font-family:Dialog; font-size:10;" x="1458" y="853">
getText() : void</text>
<text style="font-family:Dialog; font-size:10;" x="1458" y="867">
setFormat() : void</text>
<rect height="41" style="fill:#ffffff; stroke:#ffffff; stroke-width:1" width="109" x="1455" y="796"/>
<line style="fill:#000000; stroke:#000000; stroke-width:1" x1="1455" x2="1564" y1="796" y2="796"/>
<text style="font-family:Dialog; font-size:10;" x="1458" y="811">
description : text</text>
<text style="font-family:Dialog; font-size:10;" x="1458" y="825">
body : richtext</text>
<rect height="125" style="fill: none; stroke:#000000; stroke-width:1" width="110" x="1454" y="758"/>
<polyline points="1454,758 1398,462 1398,433" style="fill:none; stroke:#000000; stroke-width:1"/>
<polygon points="1398,433 1405,445 1391,445" style="fill:#ffffff; stroke:#ffffff; stroke-width:1"/>
<polygon points="1398,433 1405,445 1391,445" style="fill:none; stroke:#000000; stroke-width:1"/>
<polyline points="646,494 646,310 563,310" style="fill:none; stroke:#000000; stroke-width:1"/>
<polygon points="563,310 575,303 575,317" style="fill:#ffffff; stroke:#ffffff; stroke-width:1"/>
<polygon points="563,310 575,303 575,317" style="fill:none; stroke:#000000; stroke-width:1"/>
<rect height="125" style="fill:#ffffff; stroke:#ffffff; stroke-width:1" width="167" x="990" y="614"/>
<rect height="16" style="fill:#ffffff; stroke:#ffffff; stroke-width:1" width="167" x="990" y="614"/>
<rect height="16" style="fill: none; stroke:#000000; stroke-width:1" width="167" x="990" y="614"/>
<rect height="14" style="fill:#ffffff; stroke:#ffffff; stroke-width:1" width="165" x="991" y="615"/>
<text style="font-family:Dialog; font-size:10;" x="1043" y="629">
&lt;&lt;ordered&gt;&gt;</text>
<rect height="21" style="fill:#ffffff; stroke:#ffffff; stroke-width:1" width="167" x="990" y="630"/>
<text style="font-family:Dialog; font-size:10;" x="1028" y="644">
HelpCenterTutorial</text>
<rect height="58" style="fill:#ffffff; stroke:#ffffff; stroke-width:1" width="166" x="991" y="680"/>
<line style="fill:#000000; stroke:#000000; stroke-width:1" x1="991" x2="1157" y1="680" y2="680"/>
<text style="font-family:Dialog; font-size:10;" x="994" y="695">
getTutorialDescription() : void</text>
<text style="font-family:Dialog; font-size:10;" x="994" y="709">
getPages() : void</text>
<text style="font-family:Dialog; font-size:10;" x="994" y="723">
getPagePosition() : void</text>
<rect height="27" style="fill:#ffffff; stroke:#ffffff; stroke-width:1" width="166" x="991" y="652"/>
<line style="fill:#000000; stroke:#000000; stroke-width:1" x1="991" x2="1157" y1="652" y2="652"/>
<text style="font-family:Dialog; font-size:10;" x="994" y="667">
description : text</text>
<rect height="125" style="fill: none; stroke:#000000; stroke-width:1" width="167" x="990" y="614"/>
<polyline points="1157,614 1230,350 1278,350" style="fill:none; stroke:#000000; stroke-width:1"/>
<polygon points="1278,350 1266,357 1266,343" style="fill:#ffffff; stroke:#ffffff; stroke-width:1"/>
<polygon points="1278,350 1266,357 1266,343" style="fill:none; stroke:#000000; stroke-width:1"/>
<rect height="83" style="fill:#ffffff; stroke:#ffffff; stroke-width:1" width="141" x="1638" y="614"/>
<rect height="0" style="fill:#ffffff; stroke:#ffffff; stroke-width:1" width="141" x="1638" y="614"/>
<rect height="0" style="fill: none; stroke:#000000; stroke-width:1" width="141" x="1638" y="614"/>
<rect height="21" style="fill:#ffffff; stroke:#ffffff; stroke-width:1" width="141" x="1638" y="614"/>
<text style="font-family:Dialog; font-size:10;" x="1651" y="628">
HelpCenterTutorialPage</text>
<rect height="23" style="fill:#ffffff; stroke:#ffffff; stroke-width:1" width="140" x="1639" y="673"/>
<line style="fill:#000000; stroke:#000000; stroke-width:1" x1="1639" x2="1779" y1="673" y2="673"/>
<rect height="36" style="fill:#ffffff; stroke:#ffffff; stroke-width:1" width="140" x="1639" y="636"/>
<line style="fill:#000000; stroke:#000000; stroke-width:1" x1="1639" x2="1779" y1="636" y2="636"/>
<text style="font-family:Dialog; font-size:10;" x="1642" y="651">
description : text</text>
<text style="font-family:Dialog; font-size:10;" x="1642" y="665">
body : richtext</text>
<rect height="83" style="fill: none; stroke:#000000; stroke-width:1" width="141" x="1638" y="614"/>
<polyline points="1638,614 1534,358 1438,358" style="fill:none; stroke:#000000; stroke-width:1"/>
<polygon points="1438,358 1450,351 1450,365" style="fill:#ffffff; stroke:#ffffff; stroke-width:1"/>
<polygon points="1438,358 1450,351 1450,365" style="fill:none; stroke:#000000; stroke-width:1"/>
<polyline points="535,670 535,343" style="fill:none; stroke:#000000; stroke-width:1"/>
<polygon points="535,343 542,355 528,355" style="fill:#ffffff; stroke:#ffffff; stroke-width:1"/>
<polygon points="535,343 542,355 528,355" style="fill:none; stroke:#000000; stroke-width:1"/>
<rect height="140" style="fill:#ffffff; stroke:#ffffff; stroke-width:1" width="223" x="1150" y="702"/>
<rect height="16" style="fill:#ffffff; stroke:#ffffff; stroke-width:1" width="223" x="1150" y="702"/>
<rect height="16" style="fill: none; stroke:#000000; stroke-width:1" width="223" x="1150" y="702"/>
<rect height="14" style="fill:#ffffff; stroke:#ffffff; stroke-width:1" width="221" x="1151" y="703"/>
<text style="font-family:Dialog; font-size:10;" x="1231" y="717">
&lt;&lt;ordered&gt;&gt;</text>
<rect height="21" style="fill:#ffffff; stroke:#ffffff; stroke-width:1" width="223" x="1150" y="718"/>
<text style="font-family:Dialog; font-size:10;" x="1192" y="732">
HelpCenterReferenceManual</text>
<rect height="73" style="fill:#ffffff; stroke:#ffffff; stroke-width:1" width="222" x="1151" y="768"/>
<line style="fill:#000000; stroke:#000000; stroke-width:1" x1="1151" x2="1373" y1="768" y2="768"/>
<text style="font-family:Dialog; font-size:10;" x="1154" y="783">
getReferenceManualDescription() : void</text>
<text style="font-family:Dialog; font-size:10;" x="1154" y="797">
getTOC() : void</text>
<text style="font-family:Dialog; font-size:10;" x="1154" y="811">
getTOCInfo() : void</text>
<text style="font-family:Dialog; font-size:10;" x="1154" y="825">
addImagePaths() : void</text>
<rect height="27" style="fill:#ffffff; stroke:#ffffff; stroke-width:1" width="222" x="1151" y="740"/>
<line style="fill:#000000; stroke:#000000; stroke-width:1" x1="1151" x2="1373" y1="740" y2="740"/>
<text style="font-family:Dialog; font-size:10;" x="1154" y="755">
description : text</text>
<rect height="140" style="fill: none; stroke:#000000; stroke-width:1" width="223" x="1150" y="702"/>
<polyline points="1326,702 1326,433" style="fill:none; stroke:#000000; stroke-width:1"/>
<polygon points="1326,433 1333,445 1319,445" style="fill:#ffffff; stroke:#ffffff; stroke-width:1"/>
<polygon points="1326,433 1333,445 1319,445" style="fill:none; stroke:#000000; stroke-width:1"/>
<rect height="102" style="fill:#ffffff; stroke:#ffffff; stroke-width:1" width="209" x="958" y="446"/>
<rect height="16" style="fill:#ffffff; stroke:#ffffff; stroke-width:1" width="209" x="958" y="446"/>
<rect height="16" style="fill: none; stroke:#000000; stroke-width:1" width="209" x="958" y="446"/>
<rect height="14" style="fill:#ffffff; stroke:#ffffff; stroke-width:1" width="207" x="959" y="447"/>
<text style="font-family:Dialog; font-size:10;" x="1032" y="461">
&lt;&lt;ordered&gt;&gt;</text>
<rect height="21" style="fill:#ffffff; stroke:#ffffff; stroke-width:1" width="209" x="958" y="462"/>
<text style="font-family:Dialog; font-size:10;" x="975" y="476">
HelpCenterReferenceManualSection</text>
<rect height="33" style="fill:#ffffff; stroke:#ffffff; stroke-width:1" width="208" x="959" y="514"/>
<line style="fill:#000000; stroke:#000000; stroke-width:1" x1="959" x2="1167" y1="514" y2="514"/>
<text style="font-family:Dialog; font-size:10;" x="962" y="529">
getSectionDescription() : void</text>
<rect height="29" style="fill:#ffffff; stroke:#ffffff; stroke-width:1" width="208" x="959" y="484"/>
<line style="fill:#000000; stroke:#000000; stroke-width:1" x1="959" x2="1167" y1="484" y2="484"/>
<text style="font-family:Dialog; font-size:10;" x="962" y="499">
description : text</text>
<rect height="102" style="fill: none; stroke:#000000; stroke-width:1" width="209" x="958" y="446"/>
<polyline points="1167,446 1206,326 1278,326" style="fill:none; stroke:#000000; stroke-width:1"/>
<polygon points="1278,326 1266,333 1266,319" style="fill:#ffffff; stroke:#ffffff; stroke-width:1"/>
<polygon points="1278,326 1266,333 1266,319" style="fill:none; stroke:#000000; stroke-width:1"/>
<rect height="107" style="fill:#ffffff; stroke:#ffffff; stroke-width:1" width="197" x="966" y="270"/>
<rect height="16" style="fill:#ffffff; stroke:#ffffff; stroke-width:1" width="197" x="966" y="270"/>
<rect height="16" style="fill: none; stroke:#000000; stroke-width:1" width="197" x="966" y="270"/>
<rect height="14" style="fill:#ffffff; stroke:#ffffff; stroke-width:1" width="195" x="967" y="271"/>
<text style="font-family:Dialog; font-size:10;" x="1029" y="285">
&lt;&lt;archetype&gt;&gt;</text>
<rect height="21" style="fill:#ffffff; stroke:#ffffff; stroke-width:1" width="197" x="966" y="286"/>
<text style="font-family:Dialog; font-size:10;" x="983" y="300">
HelpCenterReferenceManualPage</text>
<rect height="27" style="fill:#ffffff; stroke:#ffffff; stroke-width:1" width="196" x="967" y="349"/>
<line style="fill:#000000; stroke:#000000; stroke-width:1" x1="967" x2="1163" y1="349" y2="349"/>
<rect height="40" style="fill:#ffffff; stroke:#ffffff; stroke-width:1" width="196" x="967" y="308"/>
<line style="fill:#000000; stroke:#000000; stroke-width:1" x1="967" x2="1163" y1="308" y2="308"/>
<text style="font-family:Dialog; font-size:10;" x="970" y="323">
description : text</text>
<text style="font-family:Dialog; font-size:10;" x="970" y="337">
body : richtext</text>
<rect height="107" style="fill: none; stroke:#000000; stroke-width:1" width="197" x="966" y="270"/>
<polyline points="1163,302 1278,302" style="fill:none; stroke:#000000; stroke-width:1"/>
<polygon points="1278,302 1266,309 1266,295" style="fill:#ffffff; stroke:#ffffff; stroke-width:1"/>
<polygon points="1278,302 1266,309 1266,295" style="fill:none; stroke:#000000; stroke-width:1"/>
<polyline points="702,294 563,294" style="fill:none; stroke:#000000; stroke-width:1"/>
<polygon points="563,294 575,287 575,301" style="fill:#ffffff; stroke:#ffffff; stroke-width:1"/>
<polygon points="563,294 575,287 575,301" style="fill:none; stroke:#000000; stroke-width:1"/>
<rect height="107" style="fill:#ffffff; stroke:#ffffff; stroke-width:1" width="95" x="1486" y="606"/>
<rect height="16" style="fill:#ffffff; stroke:#ffffff; stroke-width:1" width="95" x="1486" y="606"/>
<rect height="16" style="fill: none; stroke:#000000; stroke-width:1" width="95" x="1486" y="606"/>
<rect height="14" style="fill:#ffffff; stroke:#ffffff; stroke-width:1" width="93" x="1487" y="607"/>
<text style="font-family:Dialog; font-size:10;" x="1498" y="621">
&lt;&lt;archetype&gt;&gt;</text>
<rect height="21" style="fill:#ffffff; stroke:#ffffff; stroke-width:1" width="95" x="1486" y="622"/>
<text style="font-family:Dialog; font-size:10;" x="1497" y="636">
HelpCenterLink</text>
<rect height="27" style="fill:#ffffff; stroke:#ffffff; stroke-width:1" width="94" x="1487" y="685"/>
<line style="fill:#000000; stroke:#000000; stroke-width:1" x1="1487" x2="1581" y1="685" y2="685"/>
<rect height="40" style="fill:#ffffff; stroke:#ffffff; stroke-width:1" width="94" x="1487" y="644"/>
<line style="fill:#000000; stroke:#000000; stroke-width:1" x1="1487" x2="1581" y1="644" y2="644"/>
<text style="font-family:Dialog; font-size:10;" x="1490" y="659">
description : text</text>
<text style="font-family:Dialog; font-size:10;" x="1490" y="673">
url : string</text>
<rect height="107" style="fill: none; stroke:#000000; stroke-width:1" width="95" x="1486" y="606"/>
<polyline points="1510,606 1510,390 1438,390" style="fill:none; stroke:#000000; stroke-width:1"/>
<polygon points="1438,390 1450,383 1450,397" style="fill:#ffffff; stroke:#ffffff; stroke-width:1"/>
<polygon points="1438,390 1450,383 1450,397" style="fill:none; stroke:#000000; stroke-width:1"/>
<polyline points="306,398 342,302 414,302" style="fill:none; stroke:#000000; stroke-width:1"/>
<polygon points="414,302 402,309 402,295" style="fill:#ffffff; stroke:#ffffff; stroke-width:1"/>
<polygon points="414,302 402,309 402,295" style="fill:none; stroke:#000000; stroke-width:1"/>
<rect height="168" style="fill:#ffffff; stroke:#ffffff; stroke-width:1" width="169" x="1630" y="254"/>
<rect height="16" style="fill:#ffffff; stroke:#ffffff; stroke-width:1" width="169" x="1630" y="254"/>
<rect height="16" style="fill: none; stroke:#000000; stroke-width:1" width="169" x="1630" y="254"/>
<rect height="14" style="fill:#ffffff; stroke:#ffffff; stroke-width:1" width="167" x="1631" y="255"/>
<text style="font-family:Dialog; font-size:10;" x="1679" y="269">
&lt;&lt;archetype&gt;&gt;</text>
<rect height="21" style="fill:#ffffff; stroke:#ffffff; stroke-width:1" width="169" x="1630" y="270"/>
<text style="font-family:Dialog; font-size:10;" x="1645" y="284">
HelpCenterInstructionalVideo</text>
<rect height="30" style="fill:#ffffff; stroke:#ffffff; stroke-width:1" width="168" x="1631" y="391"/>
<line style="fill:#000000; stroke:#000000; stroke-width:1" x1="1631" x2="1799" y1="391" y2="391"/>
<rect height="98" style="fill:#ffffff; stroke:#ffffff; stroke-width:1" width="168" x="1631" y="292"/>
<line style="fill:#000000; stroke:#000000; stroke-width:1" x1="1631" x2="1799" y1="292" y2="292"/>
<text style="font-family:Dialog; font-size:10;" x="1634" y="307">
description : text</text>
<text style="font-family:Dialog; font-size:10;" x="1634" y="321">
video_file : file</text>
<text style="font-family:Dialog; font-size:10;" x="1634" y="335">
screenshot : image</text>
<text style="font-family:Dialog; font-size:10;" x="1634" y="349">
duration : string</text>
<text style="font-family:Dialog; font-size:10;" x="1634" y="363">
width : int</text>
<text style="font-family:Dialog; font-size:10;" x="1634" y="377">
height : int</text>
<rect height="168" style="fill: none; stroke:#000000; stroke-width:1" width="169" x="1630" y="254"/>
<polyline points="1630,311 1438,311" style="fill:none; stroke:#000000; stroke-width:1"/>
<polygon points="1438,311 1450,304 1450,318" style="fill:#ffffff; stroke:#ffffff; stroke-width:1"/>
<polygon points="1438,311 1450,304 1450,318" style="fill:none; stroke:#000000; stroke-width:1"/>
<text style="font-family:Serif; font-size:24;" x="55" y="62">
PloneHelpCenter</text>
<text style="font-family:Serif; font-size:24;" x="14" y="94">
Content Class Inheritance</text>
</svg>
